<mxfile host="app.diagrams.net" modified="2023-08-22T03:58:26.573Z" agent="Mozilla/5.0 (Windows NT 10.0; Win64; x64) AppleWebKit/537.36 (KHTML, like Gecko) Chrome/115.0.0.0 Safari/537.36" etag="xDPaUnWTDRSNsTa5EVLJ" version="21.6.8" type="github">
  <diagram id="C5RBs43oDa-KdzZeNtuy" name="Page-1">
    <mxGraphModel dx="1114" dy="570" grid="1" gridSize="10" guides="1" tooltips="1" connect="1" arrows="1" fold="1" page="1" pageScale="1" pageWidth="827" pageHeight="1169" math="0" shadow="0">
      <root>
        <mxCell id="WIyWlLk6GJQsqaUBKTNV-0" />
        <mxCell id="WIyWlLk6GJQsqaUBKTNV-1" parent="WIyWlLk6GJQsqaUBKTNV-0" />
        <mxCell id="WIyWlLk6GJQsqaUBKTNV-2" value="" style="rounded=0;html=1;jettySize=auto;orthogonalLoop=1;fontSize=11;endArrow=block;endFill=0;endSize=8;strokeWidth=1;shadow=0;labelBackgroundColor=none;edgeStyle=orthogonalEdgeStyle;" parent="WIyWlLk6GJQsqaUBKTNV-1" source="WIyWlLk6GJQsqaUBKTNV-3" edge="1">
          <mxGeometry relative="1" as="geometry">
            <mxPoint x="220" y="170" as="targetPoint" />
          </mxGeometry>
        </mxCell>
        <mxCell id="WIyWlLk6GJQsqaUBKTNV-3" value="START" style="rounded=1;whiteSpace=wrap;html=1;fontSize=12;glass=0;strokeWidth=1;shadow=0;" parent="WIyWlLk6GJQsqaUBKTNV-1" vertex="1">
          <mxGeometry x="160" y="80" width="120" height="40" as="geometry" />
        </mxCell>
        <mxCell id="WIyWlLk6GJQsqaUBKTNV-4" value="" style="rounded=0;html=1;jettySize=auto;orthogonalLoop=1;fontSize=11;endArrow=block;endFill=0;endSize=8;strokeWidth=1;shadow=0;labelBackgroundColor=none;edgeStyle=orthogonalEdgeStyle;" parent="WIyWlLk6GJQsqaUBKTNV-1" edge="1">
          <mxGeometry y="20" relative="1" as="geometry">
            <mxPoint as="offset" />
            <mxPoint x="220" y="250" as="sourcePoint" />
            <mxPoint x="220" y="290" as="targetPoint" />
          </mxGeometry>
        </mxCell>
        <mxCell id="WIyWlLk6GJQsqaUBKTNV-8" value="" style="rounded=0;html=1;jettySize=auto;orthogonalLoop=1;fontSize=11;endArrow=block;endFill=0;endSize=8;strokeWidth=1;shadow=0;labelBackgroundColor=none;edgeStyle=orthogonalEdgeStyle;" parent="WIyWlLk6GJQsqaUBKTNV-1" edge="1">
          <mxGeometry x="0.3333" y="20" relative="1" as="geometry">
            <mxPoint as="offset" />
            <mxPoint x="220" y="370" as="sourcePoint" />
            <mxPoint x="220" y="430" as="targetPoint" />
          </mxGeometry>
        </mxCell>
        <mxCell id="P36jR_Xyz4kk57j1g3wU-0" value="&lt;p style=&quot;line-height:1.38;margin-top:0pt;margin-bottom:0pt;&quot; dir=&quot;ltr&quot;&gt;&lt;/p&gt;&lt;div&gt;&lt;/div&gt;&lt;span style=&quot;font-size: 11pt; font-family: Arial, sans-serif; background-color: transparent; font-variant-numeric: normal; font-variant-east-asian: normal; font-variant-alternates: normal; vertical-align: baseline;&quot;&gt;For i = 1 to n&lt;/span&gt;&lt;p&gt;&lt;/p&gt;&lt;span id=&quot;docs-internal-guid-848c0ce0-7fff-4dcc-75e2-2bdef064a01c&quot;&gt;&lt;/span&gt;" style="rhombus;whiteSpace=wrap;html=1;" vertex="1" parent="WIyWlLk6GJQsqaUBKTNV-1">
          <mxGeometry x="155" y="430" width="130" height="110" as="geometry" />
        </mxCell>
        <mxCell id="P36jR_Xyz4kk57j1g3wU-1" value="" style="endArrow=classic;html=1;rounded=0;" edge="1" parent="WIyWlLk6GJQsqaUBKTNV-1">
          <mxGeometry width="50" height="50" relative="1" as="geometry">
            <mxPoint x="285" y="484.5" as="sourcePoint" />
            <mxPoint x="355" y="484.5" as="targetPoint" />
          </mxGeometry>
        </mxCell>
        <mxCell id="P36jR_Xyz4kk57j1g3wU-3" value="" style="endArrow=classic;html=1;rounded=0;" edge="1" parent="WIyWlLk6GJQsqaUBKTNV-1">
          <mxGeometry width="50" height="50" relative="1" as="geometry">
            <mxPoint x="425" y="530" as="sourcePoint" />
            <mxPoint x="425.41988950276254" y="569" as="targetPoint" />
          </mxGeometry>
        </mxCell>
        <mxCell id="P36jR_Xyz4kk57j1g3wU-4" value="&lt;p style=&quot;line-height:1.38;margin-top:0pt;margin-bottom:0pt;&quot; dir=&quot;ltr&quot;&gt;&lt;/p&gt;&lt;div&gt;&lt;/div&gt;&lt;span style=&quot;font-size: 11pt; font-family: Arial, sans-serif; background-color: transparent; font-variant-numeric: normal; font-variant-east-asian: normal; font-variant-alternates: normal; vertical-align: baseline;&quot;&gt;Calculate square = num * num&lt;/span&gt;&lt;p&gt;&lt;/p&gt;&lt;span id=&quot;docs-internal-guid-48d98f5b-7fff-5300-261e-b0d7d8e3d09b&quot;&gt;&lt;/span&gt;" style="rounded=0;whiteSpace=wrap;html=1;" vertex="1" parent="WIyWlLk6GJQsqaUBKTNV-1">
          <mxGeometry x="360" y="569" width="140" height="101" as="geometry" />
        </mxCell>
        <mxCell id="P36jR_Xyz4kk57j1g3wU-5" value="Input the number of elements, n&amp;nbsp;" style="rounded=0;whiteSpace=wrap;html=1;" vertex="1" parent="WIyWlLk6GJQsqaUBKTNV-1">
          <mxGeometry x="160" y="290" width="120" height="80" as="geometry" />
        </mxCell>
        <mxCell id="P36jR_Xyz4kk57j1g3wU-6" value="Initialize sum = 0" style="rounded=0;whiteSpace=wrap;html=1;" vertex="1" parent="WIyWlLk6GJQsqaUBKTNV-1">
          <mxGeometry x="155" y="169" width="130" height="80" as="geometry" />
        </mxCell>
        <mxCell id="P36jR_Xyz4kk57j1g3wU-8" value="" style="endArrow=classic;html=1;rounded=0;exitX=0.4;exitY=1.069;exitDx=0;exitDy=0;exitPerimeter=0;" edge="1" parent="WIyWlLk6GJQsqaUBKTNV-1">
          <mxGeometry width="50" height="50" relative="1" as="geometry">
            <mxPoint x="423" y="669.969" as="sourcePoint" />
            <mxPoint x="423" y="753" as="targetPoint" />
          </mxGeometry>
        </mxCell>
        <mxCell id="P36jR_Xyz4kk57j1g3wU-10" value="" style="endArrow=classic;html=1;rounded=0;" edge="1" parent="WIyWlLk6GJQsqaUBKTNV-1">
          <mxGeometry width="50" height="50" relative="1" as="geometry">
            <mxPoint x="219.5" y="540" as="sourcePoint" />
            <mxPoint x="219.5" y="861" as="targetPoint" />
          </mxGeometry>
        </mxCell>
        <mxCell id="P36jR_Xyz4kk57j1g3wU-11" value="End of loop" style="rounded=0;whiteSpace=wrap;html=1;" vertex="1" parent="WIyWlLk6GJQsqaUBKTNV-1">
          <mxGeometry x="165" y="860" width="120" height="60" as="geometry" />
        </mxCell>
        <mxCell id="P36jR_Xyz4kk57j1g3wU-12" value="Display the sum" style="rounded=0;whiteSpace=wrap;html=1;" vertex="1" parent="WIyWlLk6GJQsqaUBKTNV-1">
          <mxGeometry x="165" y="990" width="120" height="60" as="geometry" />
        </mxCell>
        <mxCell id="P36jR_Xyz4kk57j1g3wU-13" value="Input a number, num" style="shape=parallelogram;perimeter=parallelogramPerimeter;whiteSpace=wrap;html=1;fixedSize=1;" vertex="1" parent="WIyWlLk6GJQsqaUBKTNV-1">
          <mxGeometry x="360" y="450" width="140" height="80" as="geometry" />
        </mxCell>
        <mxCell id="P36jR_Xyz4kk57j1g3wU-14" value="Add square to sum: &lt;br&gt;sum = sum + square" style="shape=parallelogram;perimeter=parallelogramPerimeter;whiteSpace=wrap;html=1;fixedSize=1;" vertex="1" parent="WIyWlLk6GJQsqaUBKTNV-1">
          <mxGeometry x="340" y="760" width="160" height="100" as="geometry" />
        </mxCell>
        <mxCell id="P36jR_Xyz4kk57j1g3wU-15" value="" style="endArrow=classic;html=1;rounded=0;exitX=0.4;exitY=1.069;exitDx=0;exitDy=0;exitPerimeter=0;entryX=0.5;entryY=0;entryDx=0;entryDy=0;entryPerimeter=0;" edge="1" parent="WIyWlLk6GJQsqaUBKTNV-1" target="P36jR_Xyz4kk57j1g3wU-12">
          <mxGeometry width="50" height="50" relative="1" as="geometry">
            <mxPoint x="224.5" y="919.999" as="sourcePoint" />
            <mxPoint x="225" y="980" as="targetPoint" />
          </mxGeometry>
        </mxCell>
        <mxCell id="P36jR_Xyz4kk57j1g3wU-16" value="STOP" style="rounded=1;whiteSpace=wrap;html=1;" vertex="1" parent="WIyWlLk6GJQsqaUBKTNV-1">
          <mxGeometry x="164" y="1121" width="120" height="60" as="geometry" />
        </mxCell>
        <mxCell id="P36jR_Xyz4kk57j1g3wU-17" value="" style="endArrow=classic;startArrow=classic;html=1;rounded=0;exitX=0.5;exitY=1;exitDx=0;exitDy=0;" edge="1" parent="WIyWlLk6GJQsqaUBKTNV-1" source="P36jR_Xyz4kk57j1g3wU-12">
          <mxGeometry width="50" height="50" relative="1" as="geometry">
            <mxPoint x="230" y="1070" as="sourcePoint" />
            <mxPoint x="225" y="1120" as="targetPoint" />
          </mxGeometry>
        </mxCell>
      </root>
    </mxGraphModel>
  </diagram>
</mxfile>
